<?xml version="1.0" encoding="UTF-8"?>
<!--
  SPDX-FileCopyrightText: 2025-2026 Alexander Mäule
  SPDX-License-Identifier: AGPL-3.0-or-later

  Nextcloud global app menu: white glyph on 24×24 (same contract as other
  first-party apps). Do not use currentColor here — the server menu applies
  theme filters and expects a light icon asset.
-->
<svg xmlns="http://www.w3.org/2000/svg" viewBox="0 0 24 24" aria-hidden="true">
	<path fill="#ffffff" d="M5 11 6.5 6.5A2 2 0 0 1 8.4 5h7.2a2 2 0 0 1 1.9 1.5L19 11v6a2 2 0 0 1-2 2h-1.25v1.25a1.25 1.25 0 1 1-2.5 0V19H8.75v1.25a1.25 1.25 0 1 1-2.5 0V19H5a2 2 0 0 1-2-2v-6Zm1.5 0h11l-1.1-2.2a.75.75 0 0 0-.67-.4H8.27a.75.75 0 0 0-.67.4L6.5 11ZM5 15h14v2H5v-2Zm2.25-4.25a1.25 1.25 0 1 0 0-2.5 1.25 1.25 0 0 0 0 2.5Zm9.5 0a1.25 1.25 0 1 0 0-2.5 1.25 1.25 0 0 0 0 2.5Z"/>
</svg>
